HIERARCHY
ROOT pelvis
{
  OFFSET 0 100 0
  CHANNELS 6 Xposition Yposition Zposition Zrotation Xrotation Yrotation
  JOINT pelvis_right_femur
  {
    OFFSET -10.78128 -3.44521 -0.5502486
    CHANNELS 3 Zrotation Xrotation Yrotation
    JOINT right_femur_tibia
    {
      OFFSET -0.8047443 -44.0398 -0.1307829
      CHANNELS 3 Zrotation Xrotation Yrotation
      JOINT right_tibia_foot
      {
        OFFSET 3.006224 -47.83518 -5
        CHANNELS 3 Zrotation Xrotation Yrotation
        End Site
        {
          OFFSET 0 -5 15
        }
      }
    }
  }
  JOINT pelvis_left_femur
  {
    OFFSET 10.78128 -3.44521 -0.5502486
    CHANNELS 3 Zrotation Xrotation Yrotation
    JOINT left_femur_tibia
    {
      OFFSET 0.8047443 -44.0398 -0.1307829
      CHANNELS 3 Zrotation Xrotation Yrotation
      JOINT left_tibia_foot
      {
        OFFSET -4.370144 -48.10324 -4.275266
        CHANNELS 3 Zrotation Xrotation Yrotation
        End Site
        {
          OFFSET 0 -5 15
        }
      }
    }
  }
  JOINT pelvis_spine1
  {
    OFFSET 0 6.468898 -3.129235
    CHANNELS 3 Zrotation Xrotation Yrotation
    JOINT spine1
    {
      OFFSET 0 23.15396 4.99043
      CHANNELS 3 Zrotation Xrotation Yrotation
      JOINT spine2
      {
        OFFSET 0 20.79997 -5.064912
        CHANNELS 3 Zrotation Xrotation Yrotation
        JOINT neck
        {
          OFFSET 0 14.38658 9.616178
          CHANNELS 3 Zrotation Xrotation Yrotation
          End Site
          {
            OFFSET 0 20 0
          }
        }
      }
      JOINT right_manubrium
      {
        OFFSET -5.722621 16.35077 3.967754
        CHANNELS 3 Zrotation Xrotation Yrotation
        JOINT right_clavicle
        {
          OFFSET -13.16364 1.694482 -4.693211
          CHANNELS 3 Zrotation Xrotation Yrotation
          JOINT right_humerus
          {
            OFFSET -28.5034 -0.3100689 -2.792744
            CHANNELS 3 Zrotation Xrotation Yrotation
            JOINT right_radius
            {
              OFFSET -25.15693 0.02248979 -1.271978
              CHANNELS 3 Zrotation Xrotation Yrotation
              End Site
              {
                OFFSET -15 0 0
              }
            }
          }
        }
      }
      JOINT left_manubrium
      {
        OFFSET 5.722621 16.35077 3.967754
        CHANNELS 3 Zrotation Xrotation Yrotation
        JOINT left_clavicle
        {
          OFFSET 13.16364 1.694482 -4.693211
          CHANNELS 3 Zrotation Xrotation Yrotation
          JOINT left_humerus
          {
            OFFSET 29.39168 -1.063119 -2.237045
            CHANNELS 3 Zrotation Xrotation Yrotation
            JOINT left_radius
            {
              OFFSET 24.59957 -0.9528479 0.9047498
              CHANNELS 3 Zrotation Xrotation Yrotation
              End Site
              {
                OFFSET 15 -0 -0
              }
            }
          }
        }
      }
    }
  }
}
MOTION
Frames: 23
Frame Time: 0.0416666666667
0 103.5113 0 2.492631 -2.180129 0.2633216 0.9672155 -10.57595 7.589565 -0 37.15923 -0 -5.278371 -19.02917 -3.521839 -8.085113 11.74312 -23.92171 -0 4.440933 -0 8.518645 -15.42978 26.12638 -1.523857 -2.395871 5.89147 2.049725 9.682568 -6.666429 1.885004 22.51619 5.070606 1.808611 -25.99925 9.519722 5.347506 -19.49921 10.02127 85.966 35.63666 -18.82248 -0 0 15.02665 -5.210791 6.847243 3.07984 5.309853 -20.14869 -1.658938 -96.00227 28.20225 25.666 0 0 -14.53127 10.65987 16.96689 3.713941
0.2593349 103.5012 1.343941 1.935034 -1.30786 0.3162688 1.960226 -13.15889 8.617297 -0 37.55964 -0 -4.738552 -18.20572 -3.706526 -7.72487 11.48971 -23.87859 -0 4.606603 -0 7.907849 -16.22768 26.28421 -1.644464 -2.420653 6.091589 1.831636 9.631505 -6.434794 1.908689 22.78059 4.861704 1.699006 -25.60063 9.338309 5.264974 -19.61402 9.899156 85.43452 35.83708 -17.89332 -0 0 15.38035 -5.700797 6.906783 3.357173 5.129667 -19.98649 -1.599659 -96.17458 28.41951 26.01537 0 0 -13.7969 10.44117 17.24262 3.905226
0.5213303 103.3424 2.935702 1.201099 -0.7577701 0.3578008 3.088139 -17.32529 7.856996 -0 35.61757 -0 -5.537952 -15.7001 -3.156985 -7.173332 11.67901 -23.07405 -0 4.791465 -0 6.94266 -17.85762 25.48824 -1.276645 -2.245297 5.587562 2.361371 9.836968 -7.056302 1.78107 21.9586 5.488704 2.133489 -26.50451 9.629041 5.437349 -19.26877 10.27762 86.88258 35.49598 -20.35754 -0 0 14.21335 -5.05587 7.081952 3.003132 5.630162 -20.56363 -1.880096 -95.34863 27.74659 24.8216 0 0 -16.45234 10.68135 16.04556 3.890667
0.787658 103.0731 4.760668 0.5413717 0.02658371 0.387984 4.217249 -21.20063 7.79494 -0 33.73597 -0 -5.801178 -13.61456 -2.860292 -6.724289 11.69088 -22.38783 -0 5.029573 -0 6.263342 -19.21912 24.9335 -1.091725 -2.118012 5.290875 2.666534 9.934163 -7.420256 1.669412 21.43237 5.899328 2.435128 -26.96257 9.734508 5.478214 -19.04693 10.51526 87.66834 35.38658 -21.65196 -0 0 13.45112 -5.008162 7.318599 3.033141 5.935859 -20.9468 -2.032015 -94.62867 27.21001 23.90797 0 0 -18.25456 10.77618 15.12555 3.902077
1.06167 102.6383 6.908624 0.01474032 0.8656765 0.4541489 5.228871 -25.0979 7.491683 -0 30.84889 -0 -6.137847 -11.39401 -2.390444 -6.427356 11.81304 -21.49948 -0 5.288337 -0 6.347917 -20.30127 24.38806 -0.8630542 -1.98635 5.007157 2.929343 9.972676 -7.751832 1.58818 20.91753 6.293755 2.739835 -27.43559 9.868038 5.475651 -18.83068 10.68602 88.47742 35.3072 -22.9645 -0 0 12.70835 -4.901193 7.51171 3.005358 6.275125 -21.34837 -2.199001 -93.96985 26.8787 23.06851 0 0 -20.22888 10.82505 14.29234 4.068217
1.341258 102.0455 9.425271 -0.4493227 1.738749 0.583863 6.168331 -28.70151 7.235061 -0 27.63584 -0 -6.424978 -9.244055 -1.955635 -6.192978 12.0397 -20.58074 -0 5.738916 -0 6.484551 -21.24269 23.76664 -0.6806507 -1.864902 4.772038 3.12704 9.994756 -8.020488 1.507875 20.48287 6.628012 3.010445 -27.76152 9.935349 5.444169 -18.63288 10.82161 89.14652 35.29309 -24.00635 -0 0 12.04432 -4.991103 7.744371 3.096806 6.564134 -21.71726 -2.345424 -93.31162 26.57718 22.26548 0 0 -22.00213 10.81019 13.51876 4.278905
1.622366 101.316 12.38105 -0.8426689 2.577563 0.8101779 6.976052 -31.85543 6.845131 -0 24.08905 -0 -6.777046 -7.132097 -1.505487 -6.025233 12.46356 -19.55847 -0 6.54789 -0 6.677406 -21.93192 22.96927 -0.5227528 -1.754433 4.581904 3.261068 10.01065 -8.23321 1.437445 20.1273 6.899132 3.244666 -27.96559 9.952673 5.401309 -18.45386 10.91989 89.72191 35.31855 -24.86427 -0 0 11.46278 -5.196031 7.992126 3.240434 6.810702 -22.05765 -2.485742 -92.7082 26.35744 21.54709 0 0 -23.57485 10.72231 12.84777 4.574137
1.900391 100.5125 15.84299 -1.210391 3.333789 1.15893 7.662923 -34.32439 6.377794 -0 20.56257 -0 -7.184605 -5.151959 -1.122054 -5.870677 13.09718 -18.45534 -0 7.95774 -0 6.539459 -22.33396 21.84911 -0.4033598 -1.656084 4.438356 3.33656 10.041 -8.395131 1.370722 19.85899 7.101943 3.435836 -28.02913 9.905606 5.361432 -18.29352 10.9969 90.18974 35.37442 -25.52031 -0 0 10.96723 -5.542888 8.271867 3.449603 6.997304 -22.36055 -2.618093 -92.15635 26.17611 20.90733 0 0 -24.86593 10.5612 12.27382 4.924294
2.171394 99.73824 19.88337 -1.581707 3.936994 1.642811 8.219756 -35.82329 5.831541 -0 17.37516 -0 -7.652518 -3.395728 -0.8460507 -5.685632 13.9214 -17.25145 -0 10.31014 -0 5.770968 -22.28065 20.23091 -0.3227624 -1.570076 4.345599 3.354438 10.09747 -8.507085 1.308419 19.68308 7.231689 3.580008 -27.95188 9.792863 5.335035 -18.15682 11.05875 90.54505 35.44959 -25.97625 -0 0 10.57056 -6.022178 8.583241 3.711079 7.11533 -22.61772 -2.744641 -91.67928 26.03401 20.37246 0 0 -25.82737 10.32124 11.81046 5.330137
2.435551 99.14019 24.55915 -1.995706 4.327003 2.246109 8.685179 -36.04145 5.325812 -0 15.00114 -0 -8.117691 -2.015831 -0.736934 -5.401596 14.77293 -15.97167 -0 14.01823 -0 4.017032 -21.51302 17.96484 -0.2843429 -1.495496 4.308578 3.316541 10.18919 -8.568856 1.249653 19.60214 7.286216 3.675468 -27.73319 9.612204 5.32815 -18.04968 11.1128 90.77334 35.53711 -26.21829 -0 0 10.28493 -6.639652 8.930166 4.024838 7.155518 -22.81954 -2.865017 -91.28929 25.92086 19.96054 0 0 -26.41844 9.999389 11.45818 5.784423
2.701209 98.8896 29.88563 -2.475172 4.452766 2.901907 9.114134 -34.72633 5.028921 -0 13.91797 -0 -8.484221 -1.174534 -0.7981744 -4.94226 15.25749 -14.65406 -0 19.53008 -0 1.138423 -19.62537 15.05188 -0.2899309 -1.43095 4.334713 3.222151 10.32 -8.576411 1.194485 19.61719 7.264732 3.722579 -27.37464 9.363752 5.342077 -17.98103 11.16359 90.85377 35.63337 -26.22291 -0 0 10.12822 -7.404962 9.314562 4.395048 7.110939 -22.95513 -2.977323 -90.9999 25.83282 19.69579 0 0 -26.60958 9.59054 11.21552 6.286659
2.988163 99.12726 35.78876 -2.998021 4.29072 3.472771 9.523319 -31.83095 5.089132 -0 14.36367 -0 -8.662633 -1.034246 -0.9329959 -4.258643 14.66682 -13.36192 -0 27.11075 -0 -2.506492 -16.24796 11.85485 -0.341798 -1.374829 4.433514 3.068731 10.48786 -8.522148 1.142938 19.72693 7.169028 3.723876 -26.87918 9.04947 5.372318 -17.96274 11.21392 90.75632 35.73806 -25.95183 -0 0 10.12406 -8.337599 9.737774 4.835345 6.977002 -23.01187 -3.076191 -90.8211 25.76522 19.60336 0 0 -26.38131 9.089663 11.07479 6.837009
3.321695 99.87545 42.06183 -3.423598 3.799531 3.761033 9.756464 -27.56688 5.386951 -0 15.82834 -0 -8.69438 -1.743919 -0.9479275 -3.437308 12.16323 -12.14634 -0 36.49702 -0 -5.888715 -11.55354 9.161825 -0.4421186 -1.325833 4.616898 2.851648 10.68234 -8.39407 1.095283 19.92692 7.004577 3.684172 -26.25344 8.675103 5.407319 -18.0107 11.26407 90.44033 35.85297 -25.35004 -0 0 10.30514 -9.46439 10.1978 5.368166 6.753169 -22.97476 -3.15116 -90.76127 25.71417 19.71197 0 0 -25.7265 8.493027 11.02309 7.435819
3.710128 100.9905 48.37881 -3.43861 2.83883 3.595916 9.449437 -22.20609 5.415898 -0 16.83063 -0 -8.805912 -3.41798 -0.7656036 -2.8019 7.433433 -11.03915 -0 46.54739 -0 -7.776755 -6.842221 7.844924 -0.5920203 -1.283476 4.898047 2.565452 10.88155 -8.176281 1.052139 20.20708 6.78289 3.611018 -25.51309 8.253316 5.427013 -18.14509 11.31099 89.85571 35.98007 -24.34801 -0 0 10.71358 -10.81284 10.68509 6.022381 6.445887 -22.82683 -3.185071 -90.82713 25.67669 20.0531 0 0 -24.65869 7.802486 11.0418 8.079768
4.122847 102.2556 54.42581 -2.715539 1.257212 3.002047 8.323614 -15.91749 4.72557 -0 15.90871 -0 -9.146692 -5.837609 -0.6302823 -2.734381 1.310544 -10.03665 -0 55.38494 -0 -7.678014 -4.00746 8.267892 -0.7894754 -1.248439 5.287833 2.206884 11.05001 -7.852046 1.014464 20.54838 6.524206 3.515171 -24.68972 7.807017 5.402778 -18.38798 11.34752 88.95185 36.11837 -22.87503 -0 0 11.39476 -12.39787 11.17781 6.82625 6.072485 -22.55239 -3.154352 -91.02168 25.65155 20.65498 0 0 -23.2275 7.031517 11.10611 8.757577
4.504684 103.5182 60.08456 -1.331842 -0.6918084 2.271303 6.646763 -9.257734 3.636171 -0 13.31831 -0 -9.401003 -8.062629 -0.7078291 -3.10915 -4.910156 -8.97054 -0 61.09561 -0 -6.263411 -3.619707 9.91776 -1.026908 -1.222211 5.787278 1.780581 11.14247 -7.411926 0.9827971 20.91992 6.258923 3.410578 -23.83502 7.369614 5.301687 -18.75549 11.36349 87.70007 36.25929 -20.89123 -0 0 12.37822 -14.20533 11.64128 7.795913 5.663674 -22.14524 -3.034196 -91.3362 25.63634 21.52462 0 0 -21.53679 6.211117 11.18334 9.44533
4.814138 104.6328 65.4568 0.1118164 -2.34716 1.692887 5.136815 -3.332443 2.875966 -0 10.67277 -0 -9.04684 -9.154585 -0.6514608 -3.095361 -10.79671 -7.527073 -0 62.18958 -0 -4.749479 -4.351918 11.76706 -1.290147 -1.205495 6.378156 1.305695 11.11945 -6.86601 0.955509 21.27954 6.024667 3.313244 -23.01408 6.978092 5.098077 -19.24489 11.35135 86.12698 36.37943 -18.43521 -0 0 13.64849 -16.1815 12.03655 8.923215 5.260313 -21.61948 -2.811137 -91.73831 25.61781 22.62091 0 0 -19.74795 5.38943 11.22897 10.10513
5.053967 105.3248 70.69583 0.9716959 -3.433428 1.284439 4.381747 1.460432 2.593385 -0 8.817507 -0 -8.096139 -9.591846 -0.3071962 -1.986177 -16.33883 -5.710437 -0 57.69565 -0 -3.935951 -4.965846 13.39716 -1.559703 -1.196341 7.019412 0.8173244 10.97155 -6.25173 0.9275129 21.58102 5.856903 3.238579 -22.28567 6.659811 4.790157 -19.82543 11.31518 84.33942 36.43378 -15.6612 -0 0 15.12776 -18.2348 12.3346 10.16832 4.902905 -21.01405 -2.498622 -92.16954 25.56189 23.84299 0 0 -18.04681 4.6195 11.18572 10.69316
5.285487 105.3148 75.88263 1.04257 -4.186026 0.9121404 4.427015 5.767235 2.410175 -0 7.547806 -0 -7.090474 -10.82421 -0.03857811 -0.03084468 -21.0172 -4.018514 -0 48.08942 -0 -3.793642 -5.359436 15.09229 -1.814124 -1.190328 7.656564 0.357046 10.7332 -5.626291 0.8919784 21.78746 5.775778 3.19735 -21.6809 6.421871 4.409382 -20.44395 11.27427 82.513 36.3614 -12.82479 -0 0 16.69433 -20.24771 12.52403 11.46107 4.619451 -20.38297 -2.1415 -92.56556 25.42133 25.05821 0 0 -16.58065 3.939682 10.99718 11.1773
5.597882 104.5795 81.08538 0.5729631 -4.619351 0.4755355 4.82117 9.892252 2.115544 -0 6.8551 -0 -6.401 -13.32464 0.03727579 1.912384 -24.38746 -2.88993 -0 36.00731 -0 -3.837423 -5.612108 16.74754 -2.034973 -1.182922 8.239657 -0.04293589 10.46757 -5.045555 0.8447917 21.88425 5.777904 3.192038 -21.19669 6.251814 4.009514 -21.04358 11.25397 80.83725 36.111 -10.20364 -0 0 18.22703 -22.09836 12.60802 12.71456 4.419618 -19.77616 -1.799516 -92.88527 25.16285 26.15332 0 0 -15.41086 3.36132 10.63412 11.55119
6.058603 103.3639 86.44298 -0.04590629 -4.54059 -0.04008427 5.04869 13.43245 1.808543 -0 7.128127 -0 -5.986025 -16.16096 0.1373715 3.208602 -26.46333 -2.325935 -0 24.77192 -0 -3.702164 -5.579039 17.90811 -2.211058 -1.170864 8.735661 -0.368621 10.23433 -4.546642 0.787637 21.88174 5.840518 3.216847 -20.80739 6.128224 3.641949 -21.57993 11.27128 79.45378 35.66769 -8.005716 -0 0 19.63662 -23.68843 12.59913 13.84746 4.297436 -19.22604 -1.521918 -93.12008 24.78827 27.06291 0 0 -14.51908 2.872536 10.10981 11.83228
6.691338 102.004 92.13325 -0.4985076 -4.022469 -0.6004896 4.790508 16.10271 1.559502 -0 8.630103 -0 -5.727136 -18.0573 0.4173356 3.580775 -27.37903 -2.247649 -0 16.63691 -0 -3.355812 -5.328852 18.48034 -2.338134 -1.151114 9.126323 -0.6192505 10.07117 -4.148271 0.7271811 21.80592 5.933938 3.261608 -20.48349 6.031923 3.340727 -22.02193 11.32955 78.4379 35.05878 -6.342705 -0 0 20.8598 -24.95708 12.51892 14.79726 4.238573 -18.75002 -1.336084 -93.27827 24.33107 27.75637 0 0 -13.85401 2.452823 9.471289 12.04826
7.477876 100.7963 98.30461 -0.5810697 -3.397562 -1.163096 3.92221 18.05195 1.335367 -0 11.38109 -0 -5.574196 -17.95476 0.919339 2.929822 -27.26777 -2.77255 -0 12.43506 -0 -2.989516 -5.189193 18.75007 -2.415199 -1.119172 9.397381 -0.7961188 9.998675 -3.863549 0.6720363 21.68638 6.031912 3.316255 -20.20366 5.950691 3.126099 -22.3418 11.42405 77.82387 34.34176 -5.271139 -0 0 21.83098 -25.87449 12.40167 15.51769 4.226476 -18.36369 -1.254682 -93.3629 23.83806 28.2055 0 0 -13.37685 2.086641 8.780077 12.22378
